<svg xmlns="http://www.w3.org/2000/svg" version="1.1" xmlns:xlink="http://www.w3.org/1999/xlink" xmlns:svgjs="http://svgjs.dev/svgjs" width="1920" height="1080" preserveAspectRatio="none" viewBox="0 0 1920 1080"><g mask="url(&quot;#SvgjsMask1103&quot;)" fill="none"><path d="M2016 1080L0 1080 L0 840.09Q57.45 737.54, 160 794.98Q220.82 695.8, 320 756.61Q394.15 670.76, 480 744.92Q546.75 715.67, 576 782.42Q679.33 725.75, 736 829.07Q750.21 747.28, 832 761.49Q894.55 664.04, 992 726.58Q1069.98 708.56, 1088 786.54Q1122.33 724.87, 1184 759.19Q1263.77 742.96, 1280 822.73Q1335.06 717.79, 1440 772.84Q1475.57 712.41, 1536 747.99Q1666.86 718.85, 1696 849.7Q1789.03 782.73, 1856 875.76Q1904.58 764.34, 2016 812.91z" fill="rgba(24, 93, 39, 1)"></path><path d="M2080 1080L0 1080 L0 866.34Q127.4 833.75, 160 961.15Q180.82 821.97, 320 842.79Q373.06 799.85, 416 852.9Q543.32 820.22, 576 947.55Q648.61 860.16, 736 932.77Q741.08 841.85, 832 846.93Q886.15 805.08, 928 859.22Q1046.95 818.17, 1088 937.13Q1173.35 862.48, 1248 947.82Q1250.78 854.6, 1344 857.38Q1417.32 770.69, 1504 844.01Q1654.72 834.74, 1664 985.46Q1690.94 852.4, 1824 879.34Q1879.1 838.44, 1920 893.54Q2036.52 850.06, 2080 966.58z" fill="rgba(37, 125, 39, 1)"></path><path d="M2016 1080L0 1080 L0 1006.02Q96.59 1006.61, 96 1103.2Q183.18 1030.38, 256 1117.56Q266.38 967.93, 416 978.31Q503.62 905.93, 576 993.55Q671.13 992.67, 672 1087.8Q704.62 1024.41, 768 1057.03Q801.03 994.06, 864 1027.09Q896.28 963.37, 960 995.65Q1085.82 961.46, 1120 1087.28Q1132.09 1003.37, 1216 1015.46Q1283.28 922.74, 1376 990.02Q1493.49 947.51, 1536 1065Q1642.63 1011.63, 1696 1118.26Q1768.73 1030.99, 1856 1103.71Q1887.7 975.41, 2016 1007.12z" fill="rgba(53, 177, 68, 1)"></path></g><defs><mask id="SvgjsMask1103"><rect width="1920" height="1080" fill="#ffffff"></rect></mask></defs></svg>